<svg width="35" height="35" viewBox="0 0 35 35" fill="none" xmlns="http://www.w3.org/2000/svg">
<path d="M17.7 0.214996C21.6304 0.214996 24.8167 3.40124 24.8167 7.33167H10.5833C10.5833 3.40124 13.7696 0.214996 17.7 0.214996Z" fill="#1A1A1A"/>
<path d="M9.15997 17.295C9.15997 12.5785 12.9834 8.755 17.7 8.755C22.4165 8.755 26.24 12.5785 26.24 17.295C26.24 22.0115 22.4165 25.835 17.7 25.835C12.9834 25.835 9.15997 22.0115 9.15997 17.295Z" fill="#1A1A1A"/>
<path d="M7.73667 10.1783C3.80624 10.1783 0.619995 13.3646 0.619995 17.295C0.619995 21.2254 3.80624 24.4117 7.73667 24.4117V10.1783Z" fill="#1A1A1A"/>
<path d="M34.78 17.295C34.78 21.2254 31.5938 24.4117 27.6633 24.4117V10.1783C31.5938 10.1783 34.78 13.3646 34.78 17.295Z" fill="#1A1A1A"/>
<path d="M10.5833 27.2583C10.5833 31.1887 13.7696 34.375 17.7 34.375C21.6304 34.375 24.8167 31.1887 24.8167 27.2583H10.5833Z" fill="#1A1A1A"/>
<path d="M27.6633 3.06165C30.0217 3.06165 31.9333 4.97339 31.9333 7.33165H27.6633V3.06165Z" fill="#1A1A1A"/>
<path d="M27.6633 31.5283C30.0217 31.5283 31.9333 29.6166 31.9333 27.2583H27.6633V31.5283Z" fill="#1A1A1A"/>
<path d="M3.46667 7.33165C3.46667 4.97339 5.37842 3.06165 7.73667 3.06165V7.33165H3.46667Z" fill="#1A1A1A"/>
<path d="M3.46667 27.2583C3.46667 29.6166 5.37842 31.5283 7.73667 31.5283V27.2583H3.46667Z" fill="#1A1A1A"/>
</svg>
