<svg width="24" height="25" viewBox="0 0 24 25" fill="none" xmlns="http://www.w3.org/2000/svg">
<path d="M15.3536 3.14453C15.1176 3.56709 14.9074 4.00348 14.7239 4.45133C12.9215 4.16627 11.0854 4.16627 9.2829 4.45133C9.09947 4.00348 8.8892 3.56709 8.65326 3.14453C6.95536 3.43464 5.30477 3.9542 3.74682 4.68893C0.960894 8.70947 -0.302549 13.5905 0.182824 18.4578C1.99837 19.8227 4.03605 20.8636 6.20598 21.5347C6.70009 20.882 7.14106 20.1908 7.52466 19.4676C6.8167 19.2066 6.13624 18.8763 5.49318 18.4816C5.66956 18.3642 5.83639 18.2331 5.99214 18.0895C7.86735 18.9928 9.92201 19.4618 12.0034 19.4618C14.0848 19.4618 16.1395 18.9928 18.0147 18.0895C18.181 18.2321 18.3473 18.3628 18.5137 18.4816C17.8671 18.8732 17.1873 19.2071 16.4822 19.4795C16.8499 20.2191 17.2791 20.9264 17.7652 21.5941C19.9324 20.9253 21.9666 19.8841 23.7765 18.5172C24.2735 13.649 23.0091 8.76399 20.2125 4.74833C18.6721 3.99839 17.0378 3.45896 15.3536 3.14453ZM8.05926 15.6779C7.46477 15.6352 6.90993 15.3639 6.51121 14.9209C6.11249 14.4778 5.9009 13.8976 5.92086 13.3019C5.89789 12.7054 6.10843 12.1235 6.50775 11.6798C6.90707 11.2361 7.46367 10.9657 8.05926 10.9259C8.65486 10.9657 9.21146 11.2361 9.61078 11.6798C10.0101 12.1235 10.2206 12.7054 10.1977 13.3019C10.2206 13.8984 10.0101 14.4803 9.61078 14.924C9.21146 15.3677 8.65486 15.6381 8.05926 15.6779ZM15.9476 15.6779C15.3531 15.6352 14.7982 15.3639 14.3995 14.9209C14.0008 14.4778 13.7892 13.8976 13.8092 13.3019C13.7862 12.7054 13.9968 12.1235 14.3961 11.6798C14.7954 11.2361 15.352 10.9657 15.9476 10.9259C16.5443 10.9627 17.1027 11.2323 17.5026 11.6766C17.9025 12.121 18.112 12.7046 18.086 13.3019C18.112 13.8992 17.9025 14.4828 17.5026 14.9271C17.1027 15.3715 16.5443 15.6411 15.9476 15.6779Z" fill="#1A1A1A"/>
</svg>
