<svg width="24" height="25" viewBox="0 0 24 25" fill="none" xmlns="http://www.w3.org/2000/svg">
<g clip-path="url(#clip0_63_8040)">
<mask id="mask0_63_8040" style="mask-type:luminance" maskUnits="userSpaceOnUse" x="0" y="0" width="24" height="25">
<path d="M24 0.344727H0V24.3447H24V0.344727Z" fill="white"/>
</mask>
<g mask="url(#mask0_63_8040)">
<path d="M12.001 0.478516C5.44087 0.478516 0.122192 5.79719 0.122192 12.3574C0.122192 18.2855 4.46552 23.199 10.1453 24.0936V15.7919H7.12783V12.3574H10.1453V9.74016C10.1453 6.76066 11.919 5.11766 14.6312 5.11766C15.9309 5.11766 17.2924 5.34932 17.2924 5.34932V8.27061H15.7907C14.3176 8.27061 13.8567 9.18774 13.8567 10.1275V12.355H17.1486L16.6223 15.7895H13.8567V24.0912C19.5365 23.2014 23.8798 18.2867 23.8798 12.3574C23.8798 5.79719 18.5611 0.478516 12.001 0.478516Z" fill="#1A1A1A"/>
</g>
</g>
<defs>
<clipPath id="clip0_63_8040">
<rect width="24" height="24" fill="white" transform="translate(0 0.344727)"/>
</clipPath>
</defs>
</svg>
