<svg width="24" height="25" viewBox="0 0 24 25" fill="none" xmlns="http://www.w3.org/2000/svg">
<path d="M3.68308 6.65572C5.11866 6.65572 6.28243 5.49195 6.28243 4.05637C6.28243 2.62079 5.11866 1.45703 3.68308 1.45703C2.24751 1.45703 1.08374 2.62079 1.08374 4.05637C1.08374 5.49195 2.24751 6.65572 3.68308 6.65572Z" fill="#1A1A1A"/>
<path d="M8.73689 8.62593V23.0471H13.2144V15.9155C13.2144 14.0337 13.5684 12.2113 15.9017 12.2113C18.2028 12.2113 18.2313 14.3628 18.2313 16.0343V23.0483H22.7113V15.1397C22.7113 11.255 21.8749 8.26953 17.3344 8.26953C15.1544 8.26953 13.6932 9.46585 13.0956 10.598H13.035V8.62593H8.73689ZM1.44019 8.62593H5.92489V23.0471H1.44019V8.62593Z" fill="#1A1A1A"/>
</svg>
