<svg width="24" height="25" viewBox="0 0 24 25" fill="none" xmlns="http://www.w3.org/2000/svg">
<path d="M23.3977 6.64451C23.2624 6.14247 22.9979 5.68462 22.6307 5.31653C22.2634 4.94844 21.8062 4.68296 21.3044 4.54651C19.444 4.03567 12.0012 4.02735 12.0012 4.02735C12.0012 4.02735 4.55962 4.01903 2.69802 4.5073C2.1966 4.65004 1.74028 4.91927 1.37289 5.28917C1.00549 5.65906 0.739347 6.11719 0.600012 6.61957C0.109368 8.47997 0.104616 12.3386 0.104616 12.3386C0.104616 12.3386 0.0998641 16.2162 0.586944 18.0576C0.860184 19.0758 1.66209 19.88 2.68139 20.1545C4.56081 20.6653 11.9834 20.6736 11.9834 20.6736C11.9834 20.6736 19.4262 20.6819 21.2866 20.1949C21.7885 20.0586 22.2462 19.7938 22.6144 19.4264C22.9826 19.0591 23.2485 18.602 23.3858 18.1004C23.8776 16.2412 23.8812 12.3838 23.8812 12.3838C23.8812 12.3838 23.905 8.50492 23.3977 6.64451ZM9.6205 15.9133L9.62644 8.78529L15.8123 12.3553L9.6205 15.9133Z" fill="#1A1A1A"/>
</svg>
